# xmcd CD database file
#
# Track frame offsets:
#	150
#	13697
#	26794
#	36747
#	45829
#	59019
#	70929
#	83237
#	96177
#	106827
#	116597
#	128269
#	139559
#	151547
#	165229
#	179302
#	192019
#	207287
#
# Disc length: 3040 seconds
#
# Revision: 1
# Processed by: cddbd v1.5.2PL0 Copyright (c) Steve Scherf et al.
# Submitted via: CDex 1.51
#
DISCID=e20bde12
DTITLE=O.V. Wright - Treasured Moments - 45's Special Collection
DYEAR=2008
DGENRE=Soul
TTITLE0=That's How Strong My Love Is
TTITLE1=There Goes My Used To Be
TTITLE2=Fed Up With Blues
TTITLE3=Treasured Moments
TTITLE4=Heataches, Heartaches
TTITLE5=What About You
TTITLE6=What Did You Tell This Girl Of Mine
TTITLE7=What Did You Tell This Girl Of Mine (Alt. Take)
TTITLE8=Oh Baby Mine
TTITLE9=Working For Game
TTITLE10=Missing You
TTITLE11=Love The Way You Love
TTITLE12=Drowning On Dry Land
TTITLE13=What More Can I Do
TTITLE14=Henpecked Man
TTITLE15=Nobody But You
TTITLE16=Slow And Easy
TTITLE17=Without You
EXTD=YEAR: 2008
EXTT0=
EXTT1=
EXTT2=
EXTT3=
EXTT4=
EXTT5=
EXTT6=
EXTT7=
EXTT8=
EXTT9=
EXTT10=
EXTT11=
EXTT12=
EXTT13=
EXTT14=
EXTT15=
EXTT16=
EXTT17=
PLAYORDER=
